# xmcd CD database file
#
# Track frame offsets:
#	150
#	14159
#	24406
#	38738
#	49765
#	77196
#	88210
#	112690
#	128872
#	140456
#	157243
#	171492
#	186764
#	204110
#	237257
#	249881
#
# Disc length: 3553 seconds
#
# Revision: 0
# Processed by: cddbd v1.5.2PL0 Copyright (c) Steve Scherf et al.
# Submitted via: CDex 1.51
#
DISCID=d30ddf10
DTITLE=Elezar Brandt - Blowing My Own Horn
DYEAR=2007
DGENRE=Jazz
TTITLE0=Beer Barrel Polka
TTITLE1=When My Baby Smiles At Me
TTITLE2=Jolson Medley
TTITLE3=Coney Island Washboard
TTITLE4=Lida Rose
TTITLE5=Washington Post Medley
TTITLE6=Weeping Willow Rag
TTITLE7=Music Man Medley
TTITLE8=Carolina In The Morning
TTITLE9=In The Mood
TTITLE10=Boogie Woogie Bugle Boy
TTITLE11=Bourbon Street Parade
TTITLE12=Puttin' On The Ritz
TTITLE13=Tishomingo Blues
TTITLE14=Mei Mir Bist Du Schoen
TTITLE15=Royal Garden Blues
EXTD=YEAR: 2007
EXTT0=
EXTT1=
EXTT2=
EXTT3=
EXTT4=
EXTT5=
EXTT6=
EXTT7=
EXTT8=
EXTT9=
EXTT10=
EXTT11=
EXTT12=
EXTT13=
EXTT14=
EXTT15=
PLAYORDER=
